<svg width="789" height="179" viewBox="0 0 789 179" fill="none" xmlns="http://www.w3.org/2000/svg">
<path d="M22.8553 178.992H195.679C213.773 178.992 224.663 158.95 214.829 143.765L128.417 10.4108C119.423 -3.47027 99.1113 -3.47027 90.1171 10.4108L3.70509 143.773C-6.12859 158.958 4.76191 179 22.8553 179V178.992Z" fill="white"/>
<path d="M278.095 98.9999L275.675 103.83H275.575C275.315 104.22 274.865 104.76 274.225 105.47C272.065 107.6 269.455 108.66 266.405 108.66C263.355 108.66 260.765 107.61 258.675 105.52C256.585 103.43 255.535 100.93 255.535 98.0299C255.535 96.1299 255.725 94.8399 256.115 94.1699H256.165L286.115 34.2699H286.215C286.475 33.8499 286.955 33.2999 287.665 32.6299C289.755 30.5099 292.335 29.4399 295.395 29.4399C298.455 29.4399 301.025 30.4899 303.125 32.5799C303.835 33.3199 304.315 33.8799 304.575 34.2699H304.675L334.625 94.1699H334.675C335.065 94.8499 335.255 96.1299 335.255 98.0299C335.255 100.93 334.205 103.42 332.115 105.52C330.025 107.61 327.445 108.66 324.385 108.66C321.325 108.66 318.765 107.63 316.705 105.57C315.965 104.8 315.465 104.22 315.205 103.83H315.105L312.685 98.9999H278.095ZM302.055 77.7499L295.385 64.4199L288.715 77.7499H302.045H302.055Z" fill="white"/>
<path d="M387.395 79.6799H374.115V98.0399C374.115 100.94 373.065 103.43 370.975 105.53C368.885 107.62 366.305 108.67 363.245 108.67C360.185 108.67 357.605 107.62 355.515 105.53C353.425 103.44 352.375 100.94 352.375 98.0399V40.0699C352.375 37.1699 353.425 34.6799 355.515 32.5799C357.605 30.4899 360.185 29.4399 363.245 29.4399H387.395C394.445 29.4399 400.435 31.8999 405.365 36.8299C410.295 41.7599 412.755 47.6699 412.755 54.5599C412.755 61.4499 410.295 67.3599 405.365 72.2899C400.435 77.2199 394.445 79.6799 387.395 79.6799ZM387.395 50.6999H374.115V58.4299H387.395C388.325 58.4299 389.165 58.0599 389.905 57.3199C390.645 56.5799 391.015 55.6599 391.015 54.5699C391.015 53.4799 390.645 52.5599 389.905 51.8199C389.165 51.0799 388.325 50.7099 387.395 50.7099V50.6999Z" fill="white"/>
<path d="M469.745 108.66C458.695 108.66 449.295 104.78 441.535 97.0199C433.775 89.2599 429.895 79.9399 429.895 69.0499C429.895 58.1599 433.775 48.8399 441.535 41.0799C449.295 33.3199 458.695 29.4399 469.745 29.4399C480.795 29.4399 490.195 33.3199 497.955 41.0799C505.715 48.8399 509.595 58.1599 509.595 69.0499C509.595 79.9399 505.715 89.2599 497.955 97.0199C490.195 104.78 480.795 108.66 469.745 108.66ZM482.525 82.0699C486.085 78.5099 487.865 74.1699 487.865 69.0499C487.865 63.9299 486.085 59.5899 482.525 56.0299C478.965 52.4699 474.705 50.6899 469.745 50.6899C464.785 50.6899 460.525 52.4699 456.965 56.0299C453.405 59.5899 451.625 63.9299 451.625 69.0499C451.625 74.1699 453.405 78.5099 456.965 82.0699C460.525 85.6299 464.785 87.4099 469.745 87.4099C474.705 87.4099 478.965 85.6299 482.525 82.0699Z" fill="white"/>
<path d="M537.605 108.66C534.545 108.66 531.965 107.61 529.875 105.52C527.785 103.43 526.735 100.93 526.735 98.0299V40.0599C526.735 37.1599 527.785 34.6699 529.875 32.5699C531.965 30.4799 534.545 29.4299 537.605 29.4299C540.665 29.4299 543.235 30.4799 545.335 32.5699C547.425 34.6599 548.475 37.1599 548.475 40.0599V87.3999H576.255C579.315 87.3999 581.895 88.4499 583.985 90.5399C586.075 92.6299 587.125 95.1299 587.125 98.0299C587.125 100.93 586.075 103.42 583.985 105.52C581.895 107.61 579.315 108.66 576.255 108.66H537.615H537.605Z" fill="white"/>
<path d="M615.125 108.66C612.065 108.66 609.485 107.61 607.395 105.52C605.305 103.43 604.255 100.93 604.255 98.0299V40.0599C604.255 37.1599 605.305 34.6699 607.395 32.5699C609.485 30.4699 612.065 29.4299 615.125 29.4299C618.185 29.4299 620.765 30.4799 622.855 32.5699C624.945 34.6599 625.995 37.1599 625.995 40.0599V87.3999H653.775C656.835 87.3999 659.415 88.4499 661.505 90.5399C663.595 92.6299 664.645 95.1299 664.645 98.0299C664.645 100.93 663.595 103.42 661.505 105.52C659.415 107.61 656.835 108.66 653.775 108.66H615.135H615.125Z" fill="white"/>
<path d="M721.625 108.66C710.575 108.66 701.175 104.78 693.415 97.0199C685.655 89.2599 681.775 79.9399 681.775 69.0499C681.775 58.1599 685.655 48.8399 693.415 41.0799C701.175 33.3199 710.575 29.4399 721.625 29.4399C732.675 29.4399 742.075 33.3199 749.835 41.0799C757.595 48.8399 761.475 58.1599 761.475 69.0499C761.475 79.9399 757.595 89.2599 749.835 97.0199C742.075 104.78 732.675 108.66 721.625 108.66ZM734.395 82.0699C737.955 78.5099 739.735 74.1699 739.735 69.0499C739.735 63.9299 737.955 59.5899 734.395 56.0299C730.835 52.4699 726.575 50.6899 721.615 50.6899C716.655 50.6899 712.395 52.4699 708.835 56.0299C705.275 59.5899 703.495 63.9299 703.495 69.0499C703.495 74.1699 705.275 78.5099 708.835 82.0699C712.395 85.6299 716.655 87.4099 721.615 87.4099C726.575 87.4099 730.835 85.6299 734.395 82.0699Z" fill="white"/>
<path d="M770.565 35.9599V22.9199H776.105C777.495 22.9199 778.515 23.0399 779.145 23.2699C779.775 23.4999 780.285 23.9199 780.665 24.5199C781.045 25.1199 781.235 25.7999 781.235 26.5699C781.235 27.5499 780.945 28.3599 780.375 28.9899C779.795 29.6299 778.945 30.0299 777.795 30.1999C778.365 30.5299 778.835 30.8999 779.205 31.2899C779.575 31.6899 780.075 32.3899 780.705 33.4099L782.295 35.9499H779.145L777.245 33.1099C776.565 32.0999 776.105 31.4599 775.855 31.1899C775.605 30.9299 775.345 30.7499 775.065 30.6499C774.785 30.5499 774.345 30.4999 773.745 30.4999H773.215V35.9399H770.585L770.565 35.9599ZM773.205 28.4399H775.155C776.415 28.4399 777.205 28.3899 777.525 28.2799C777.835 28.1699 778.085 27.9899 778.265 27.7299C778.445 27.4699 778.535 27.1399 778.535 26.7499C778.535 26.3099 778.415 25.9599 778.185 25.6899C777.955 25.4199 777.625 25.2499 777.195 25.1799C776.985 25.1499 776.345 25.1399 775.275 25.1399H773.225V28.4499L773.205 28.4399Z" fill="white"/>
<path d="M776.425 41.88C769.565 41.88 763.985 36.3 763.985 29.44C763.985 22.58 769.565 17 776.425 17C783.285 17 788.865 22.58 788.865 29.44C788.865 36.3 783.285 41.88 776.425 41.88ZM776.425 20.2C771.335 20.2 767.185 24.35 767.185 29.44C767.185 34.53 771.335 38.68 776.425 38.68C781.515 38.68 785.665 34.53 785.665 29.44C785.665 24.35 781.515 20.2 776.425 20.2Z" fill="white"/>
<path d="M437.465 143.92H445.195V145.57H439.405V151.71H443.745V153.36H439.405V161.94H437.455V143.93L437.465 143.92Z" fill="white"/>
<path d="M469.205 143.92V161.93H467.255V143.92H469.205Z" fill="white"/>
<path d="M494.545 143.92V160.28H500.385V161.93H492.605V143.92H494.555H494.545Z" fill="white"/>
<path d="M525.085 143.92L528.225 157.54H528.275L531.345 143.92H534.435V161.93H532.635V145.42H532.585L528.845 161.93H527.575L523.835 145.42H523.785V161.93H521.985V143.92H525.075H525.085Z" fill="white"/>
<path d="M565.655 143.92V145.57H559.365V151.71H564.005V153.36H559.365V160.29H565.945V161.94H557.415V143.93H565.645L565.655 143.92Z" fill="white"/>
<path d="M594.875 148.56C594.725 146.72 593.975 145.32 592.105 145.32C590.605 145.32 589.635 146.32 589.635 147.69C589.635 151.76 596.865 151.8 596.865 157.59C596.865 160.46 595.215 162.18 592.255 162.18C589.295 162.18 587.745 160.11 587.695 157.09H589.495C589.545 159.21 590.545 160.53 592.465 160.53C594.085 160.53 595.135 159.48 595.135 157.56C595.135 153.47 587.905 153 587.905 147.86C587.905 145.32 589.655 143.67 592.245 143.67C594.835 143.67 596.535 145.42 596.685 148.56H594.885H594.875Z" fill="white"/>
</svg>
